<svg width="40" height="40" viewBox="0 0 40 40" fill="none" xmlns="http://www.w3.org/2000/svg">
<g clip-path="url(#clip0_2928_23219)">
<mask id="mask0_2928_23219" style="mask-type:luminance" maskUnits="userSpaceOnUse" x="0" y="0" width="40" height="40">
<rect width="40" height="40" rx="3" fill="white"/>
</mask>
<g mask="url(#mask0_2928_23219)">
<rect width="40" height="40" fill="white"/>
<path fill-rule="evenodd" clip-rule="evenodd" d="M2 0C0.895431 0 0 0.895431 0 2V38C0 39.1046 0.895431 40 2 40H38C39.1046 40 40 39.1046 40 38V2C40 0.895431 39.1046 0 38 0H2ZM1 3C1 1.89543 1.89543 1 3 1H37C38.1046 1 39 1.89543 39 3V37C39 38.1046 38.1046 39 37 39H3C1.89543 39 1 38.1046 1 37V3Z" fill="#C2D1D9"/>
<mask id="mask1_2928_23219" style="mask-type:luminance" maskUnits="userSpaceOnUse" x="0" y="0" width="40" height="40">
<path fill-rule="evenodd" clip-rule="evenodd" d="M2 0C0.895431 0 0 0.895431 0 2V38C0 39.1046 0.895431 40 2 40H38C39.1046 40 40 39.1046 40 38V2C40 0.895431 39.1046 0 38 0H2ZM1 3C1 1.89543 1.89543 1 3 1H37C38.1046 1 39 1.89543 39 3V37C39 38.1046 38.1046 39 37 39H3C1.89543 39 1 38.1046 1 37V3Z" fill="white"/>
</mask>
<g mask="url(#mask1_2928_23219)">
<rect width="40" height="40" fill="#C2D1D9"/>
</g>
<path fill-rule="evenodd" clip-rule="evenodd" d="M21 21V26C21 26.5523 20.5523 27 20 27C19.4477 27 19 26.5523 19 26V21H14C13.4477 21 13 20.5523 13 20C13 19.4477 13.4477 19 14 19H19V14C19 13.4477 19.4477 13 20 13C20.5523 13 21 13.4477 21 14V19H26C26.5523 19 27 19.4477 27 20C27 20.5523 26.5523 21 26 21H21Z" fill="black" fill-opacity="0.7"/>
<mask id="mask2_2928_23219" style="mask-type:luminance" maskUnits="userSpaceOnUse" x="13" y="13" width="14" height="14">
<path fill-rule="evenodd" clip-rule="evenodd" d="M21 21V26C21 26.5523 20.5523 27 20 27C19.4477 27 19 26.5523 19 26V21H14C13.4477 21 13 20.5523 13 20C13 19.4477 13.4477 19 14 19H19V14C19 13.4477 19.4477 13 20 13C20.5523 13 21 13.4477 21 14V19H26C26.5523 19 27 19.4477 27 20C27 20.5523 26.5523 21 26 21H21Z" fill="white"/>
</mask>
<g mask="url(#mask2_2928_23219)">
<rect x="8" y="8" width="24" height="24" fill="#C2D1D9"/>
</g>
</g>
</g>
<defs>
<clipPath id="clip0_2928_23219">
<rect width="40" height="40" fill="white"/>
</clipPath>
</defs>
</svg>
